<?xml version="1.0" encoding="UTF-8" standalone="no"?>
<!-- Created with Inkscape (http://www.inkscape.org/) -->

<svg
   version="1.1"
   id="svg1"
   width="440"
   height="190"
   viewBox="0 0 440 190"
   sodipodi:docname="logo.svg"
   inkscape:version="1.4.4 (dcaf3e7d9e, 2026-05-05)"
   inkscape:export-filename="logo.png"
   inkscape:export-xdpi="96"
   inkscape:export-ydpi="96"
   xmlns:inkscape="http://www.inkscape.org/namespaces/inkscape"
   xmlns:sodipodi="http://sodipodi.sourceforge.net/DTD/sodipodi-0.dtd"
   xmlns="http://www.w3.org/2000/svg"
   xmlns:svg="http://www.w3.org/2000/svg">
  <defs
     id="defs1" />
  <sodipodi:namedview
     id="namedview1"
     pagecolor="#505050"
     bordercolor="#ffffff"
     borderopacity="1"
     inkscape:showpageshadow="0"
     inkscape:pageopacity="0"
     inkscape:pagecheckerboard="1"
     inkscape:deskcolor="#505050"
     inkscape:zoom="1.8045455"
     inkscape:cx="218.06045"
     inkscape:cy="132.7204"
     inkscape:window-width="1068"
     inkscape:window-height="1040"
     inkscape:window-x="0"
     inkscape:window-y="0"
     inkscape:window-maximized="1"
     inkscape:current-layer="layer1" />
  <g
     inkscape:groupmode="layer"
     id="layer1"
     inkscape:label="Main"
     style="display:inline">
    <rect
       style="display:inline;fill:#080b10;stroke:#fd0000;stroke-width:0;paint-order:stroke fill markers;fill-opacity:1"
       id="rect1"
       width="440"
       height="190"
       x="0"
       y="0" />
    <text
       xml:space="preserve"
       style="font-weight:600;font-size:91.814px;line-height:0;font-family:Orbitron;-inkscape-font-specification:'Orbitron Semi-Bold';writing-mode:lr-tb;direction:ltr;fill:#ff0000;stroke:#fd0000;stroke-width:0;paint-order:stroke fill markers"
       x="12.846231"
       y="77.938736"
       id="text1"><tspan
         sodipodi:role="line"
         id="tspan1"
         x="12.846231"
         y="77.938736"
         style="fill:#ffffff;stroke-width:0">AUDIO</tspan></text>
    <text
       xml:space="preserve"
       style="font-weight:600;font-size:139.201px;line-height:0;font-family:Orbitron;-inkscape-font-specification:'Orbitron Semi-Bold';writing-mode:lr-tb;direction:ltr;fill:#ffffff;stroke:#fd0000;stroke-width:0;paint-order:stroke fill markers"
       x="380.00583"
       y="105.7907"
       id="text2"
       transform="scale(0.87156944,1.1473555)"><tspan
         sodipodi:role="line"
         id="tspan2"
         x="380.00583"
         y="105.7907"
         style="font-weight:bold;stroke-width:0">X</tspan></text>
    <path
       style="fill:#ffffff;stroke:#fd0000;stroke-width:0;paint-order:stroke fill markers"
       d="m 16.209068,127.80227 c 1.305807,-2.38057 3.402603,-4.2598 5.403023,-6.09572 5.130694,-4.70878 10.612084,-9.20353 16.763224,-12.46851 3.953923,-2.09871 8.293734,-3.52165 12.676322,-4.43325 3.989492,-0.82983 8.135418,-1.29216 12.191436,-0.90051 2.882505,0.27833 5.674866,1.25642 8.381612,2.2859 3.204335,1.21874 6.317188,2.7365 9.212847,4.57178 2.735166,1.73355 5.158174,3.92229 7.619647,6.02645 2.794593,2.38893 5.410488,4.97934 8.104534,7.48111 3.519437,3.26825 6.973077,6.60771 10.528967,9.83627 2.3254,2.11134 4.57386,4.32193 7.06549,6.23426 2.88047,2.21077 5.85344,4.34998 9.07431,6.02645 2.74986,1.43131 5.61909,2.78494 8.65869,3.39421 3.07972,0.61731 6.34783,0.85862 9.42065,0.2078 3.34474,-0.70841 6.44371,-2.45805 9.28212,-4.36398 2.88973,-1.94039 5.34254,-4.49447 7.68892,-7.06549 1.48806,-1.63052 2.69673,-3.49583 4.01763,-5.26448 3.11447,-4.1702 6.17154,-8.3832 9.21285,-12.60705 1.93542,-2.68796 3.79153,-5.43286 5.74937,-8.10454 1.89984,-2.59254 3.75494,-5.22481 5.81864,-7.68891 2.16114,-2.58045 4.34523,-5.172014 6.85768,-7.411843 2.39241,-2.132816 4.92911,-4.173809 7.75818,-5.680101 2.34027,-1.246038 4.88162,-2.179864 7.48111,-2.701511 2.74263,-0.550371 5.59236,-0.627688 8.38161,-0.415617 2.3028,0.175085 4.56894,0.747064 6.78842,1.38539 2.27513,0.654332 4.55926,1.382973 6.64987,2.493703 2.07644,1.103203 3.99612,2.520124 5.74937,4.086902 2.42636,2.168297 4.4127,4.786447 6.51134,7.273297 3.06291,3.62948 6.16994,7.24304 8.8665,11.1524 2.51599,3.64758 4.46591,7.65574 6.78841,11.42947 1.30596,2.122 2.66773,4.2092 4.01763,6.30352 1.67236,2.59462 3.34151,5.19167 5.05668,7.75819 1.97498,2.9553 3.76978,6.05099 6.02645,8.79723 2.01104,2.44733 4.23494,4.73858 6.64987,6.78841 2.45161,2.08096 4.96784,4.214 7.89672,5.54156 1.77504,0.80457 3.73142,1.41236 5.68011,1.38539 3.0637,-0.0424 6.11962,-1.06694 8.86649,-2.42443 3.27897,-1.62046 6.09221,-4.11405 8.72796,-6.64987 3.81782,-3.67308 6.88101,-8.06319 10.11335,-12.26071 6.64235,-8.62577 13.37084,-17.20547 19.04912,-26.53023 1.9764,-3.2456 6.40447,-5.533 10.18262,-5.12594 1.7138,0.18465 3.0133,1.85477 4.01763,3.25567 1.66789,2.32646 4.51928,5.64202 2.97859,8.0546 -3.52107,5.51368 -7.16098,10.91425 -10.80604,16.32827 -2.57886,3.83039 -5.05887,7.73389 -7.82746,11.42947 -3.43356,4.5832 -6.95532,9.12497 -10.87531,13.29975 -3.6235,3.85903 -7.30898,7.75847 -11.63728,10.80604 -2.82877,1.99175 -5.96787,3.57996 -9.21285,4.7796 -3.42513,1.26624 -7.03087,2.16234 -10.6675,2.4937 -3.36107,0.30625 -6.83189,0.30416 -10.11335,-0.48488 -4.31051,-1.03648 -8.42176,-3.03063 -12.12217,-5.4723 -4.44671,-2.93411 -8.28824,-6.77875 -11.77582,-10.80604 -3.40433,-3.93117 -6.08528,-8.44691 -8.79723,-12.88413 -2.34387,-3.83497 -4.26014,-7.91572 -6.44206,-11.84509 -2.79598,-5.03522 -5.46636,-10.14833 -8.52016,-15.03149 -2.89669,-4.63194 -5.65108,-9.42572 -9.28211,-13.50755 -2.77331,-3.11762 -5.68569,-6.38276 -9.42066,-8.24308 -2.02673,-1.00948 -4.38597,-1.42324 -6.64987,-1.38539 -2.73252,0.0457 -5.5197,0.72119 -7.966,1.93955 -3.65736,1.82153 -6.60682,4.86302 -9.48992,7.75819 -4.76088,4.78082 -8.47366,10.50184 -12.74559,15.72418 -2.82463,3.45305 -5.51488,7.02411 -8.52015,10.32116 -3.97053,4.35602 -7.80416,8.95672 -12.53779,12.46851 -3.55936,2.64062 -7.50656,4.88859 -11.70655,6.30353 -3.5219,1.18649 -7.30499,1.96811 -11.01385,1.73173 -5.11188,-0.32581 -10.13731,-2.07663 -14.75441,-4.29471 -4.95998,-2.3828 -9.33296,-5.90495 -13.50755,-9.48992 -3.49377,-3.00031 -6.34244,-6.67923 -9.559198,-9.97481 -3.888901,-3.98419 -7.541149,-8.23055 -11.775819,-11.84509 -4.503731,-3.8442 -9.126476,-7.71343 -14.408061,-10.39043 -3.139294,-1.59117 -6.579681,-2.63524 -10.04408,-3.25566 -2.775175,-0.49699 -5.649786,-0.66644 -8.450882,-0.34635 -3.545186,0.40512 -6.98018,1.58692 -10.321159,2.84005 -3.335939,1.25124 -6.60234,2.76046 -9.628463,4.64106 -1.816351,1.12878 -3.40354,2.59174 -5.056675,3.94836 -2.050234,1.6825 -4.031822,3.44715 -6.026448,5.19521 -1.279126,1.12101 -2.553936,2.24723 -3.809824,3.39421 -1.097673,1.00249 -1.991108,3.82937 -3.255668,3.04786 -2.901613,-1.79324 -0.331325,-0.77764 0.761965,-2.77078 z"
       id="path2"
       sodipodi:nodetypes="saaaaaaaaaaaaaaaaaaaaaaaaaaaaaaaaaaaaaasaasaaaaaaaaaaaaaaaaaaaaaaaaaaaaaaaaaass" />
    <path
       style="fill:#ffffff;stroke:#fd0000;stroke-width:0;paint-order:stroke fill markers"
       d="m 12.503149,127.94081 216.776671,-0.1985 3.47765,5.143 H 12.735047 c 0,0 -1.714334,-0.44083 -1.714334,-2.44904 0,-2.00822 1.482436,-2.49546 1.482436,-2.49546 z"
       id="path3" />
    <path
       style="fill:#ffffff;stroke:#fd0000;stroke-width:0;paint-order:stroke fill markers"
       d="m 263.67443,127.97544 3.0825,5.05668 h 48.69647 l 3.39421,-5.02204 z"
       id="path4" />
  </g>
</svg>
